<svg xmlns="http://www.w3.org/2000/svg" viewBox="0 0 100 100" fill="none">
  <defs>
    <linearGradient id="gymGradient" x1="0%" y1="0%" x2="100%" y2="100%">
      <stop offset="0%" style="stop-color:#D4FF00;stop-opacity:1" />
      <stop offset="100%" style="stop-color:#A3D900;stop-opacity:1" />
    </linearGradient>
  </defs>
  
  <g transform="translate(50,50) rotate(45) translate(-50,-50)">
    <!-- Vertical Barbell (will be diagonal due to group rotation) -->
    <rect x="45" y="10" width="10" height="80" rx="2" fill="#333" stroke="url(#gymGradient)" stroke-width="2" />
    <!-- Weights Top -->
    <rect x="35" y="10" width="30" height="10" rx="2" fill="url(#gymGradient)" />
    <rect x="40" y="22" width="20" height="5" rx="1" fill="url(#gymGradient)" opacity="0.8" />
    <!-- Weights Bottom -->
    <rect x="35" y="80" width="30" height="10" rx="2" fill="url(#gymGradient)" />
    <rect x="40" y="73" width="20" height="5" rx="1" fill="url(#gymGradient)" opacity="0.8" />
  </g>

  <g transform="translate(50,50) rotate(-45) translate(-50,-50)">
    <!-- Vertical Barbell (will be diagonal due to group rotation) -->
    <rect x="45" y="10" width="10" height="80" rx="2" fill="#333" stroke="url(#gymGradient)" stroke-width="2" />
    <!-- Weights Top -->
    <rect x="35" y="10" width="30" height="10" rx="2" fill="url(#gymGradient)" />
    <rect x="40" y="22" width="20" height="5" rx="1" fill="url(#gymGradient)" opacity="0.8" />
    <!-- Weights Bottom -->
    <rect x="35" y="80" width="30" height="10" rx="2" fill="url(#gymGradient)" />
    <rect x="40" y="73" width="20" height="5" rx="1" fill="url(#gymGradient)" opacity="0.8" />
  </g>
</svg>
